<svg viewBox="0 0 167 203" fill="none" xmlns="http://www.w3.org/2000/svg">
    <path d="M87.5 102.5L104 92L70.5 71.5L121.5 41.5L105 30.5L52 61.5L35.5 51L104 11L87 0L0 51L87.5 102.5Z"
        fill="#F5A728" />
    <path fill-rule="evenodd" clip-rule="evenodd"
        d="M104.5 193.5L87 203V121.5L17 80.5V101L69.5 132V152.5L17 122V158.5L0 147.5V51L87 101.5L134.5 72.5C141.167 68.8333 156.4 66.4 164 86C171.6 105.6 157.167 120.5 149 125.5L104.5 154V193.5ZM122.5 101C118.9 103.4 109 109.333 104.5 112V132L141 110C143 108.5 144 107.5 144 105V96.5C143.833 94.8333 142.6 91.5 139 91.5C138 91.5 127 98 122.5 101Z"
        fill="#EE7524" />
    <path
        d="M61.5 168C63.9853 168 66 164.866 66 161C66 157.134 63.9853 154 61.5 154C59.0147 154 57 157.134 57 161C57 164.866 59.0147 168 61.5 168Z"
        fill="#F5A728" />
</svg>
